<svg width="28" height="32" viewBox="0 0 28 32" fill="none" xmlns="http://www.w3.org/2000/svg">
<path fill-rule="evenodd" clip-rule="evenodd" d="M13.7816 20.6408C13.4876 20.6408 13.1936 20.5103 12.9696 20.2506L8.37584 14.9239C7.9268 14.4032 7.9268 13.5616 8.37584 13.0409C8.82488 12.5202 9.5507 12.5202 9.99974 13.0409L13.7953 17.4421L17.5772 13.2074C18.0354 12.6973 18.7601 12.712 19.2011 13.2407C19.6421 13.7693 19.6294 14.6136 19.1735 15.1236L14.5797 20.2666C14.3558 20.5169 14.0687 20.6408 13.7816 20.6408Z" fill="#18203A"/>
<mask id="mask0_3299_6361" style="mask-type:luminance" maskUnits="userSpaceOnUse" x="8" y="12" width="12" height="9">
<path fill-rule="evenodd" clip-rule="evenodd" d="M13.7816 20.6408C13.4876 20.6408 13.1936 20.5103 12.9696 20.2506L8.37584 14.9239C7.9268 14.4032 7.9268 13.5616 8.37584 13.0409C8.82488 12.5202 9.5507 12.5202 9.99974 13.0409L13.7953 17.4421L17.5772 13.2074C18.0354 12.6973 18.7601 12.712 19.2011 13.2407C19.6421 13.7693 19.6294 14.6136 19.1735 15.1236L14.5797 20.2666C14.3558 20.5169 14.0687 20.6408 13.7816 20.6408Z" fill="white"/>
</mask>
<g mask="url(#mask0_3299_6361)">
</g>
</svg>
