<svg width="24" height="24" viewBox="0 0 24 24" fill="none" xmlns="http://www.w3.org/2000/svg">
    <path fill-rule="evenodd" clip-rule="evenodd" d="M12 13.499C11.173 13.499 10.5 12.826 10.5 11.999C10.5 11.172 11.173 10.499 12 10.499C12.827 10.499 13.5 11.172 13.5 11.999C13.5 12.826 12.827 13.499 12 13.499ZM12 8.49904C10.0701 8.49904 8.50005 10.069 8.50005 11.999C8.50005 13.929 10.0701 15.499 12 15.499C13.93 15.499 15.5 13.929 15.5 11.999C15.5 10.069 13.93 8.49904 12 8.49904ZM12.2197 16.9966C7.91375 17.0966 5.10475 13.4136 4.17275 11.9946C5.19875 10.3896 7.78275 7.10364 11.7807 7.00164C16.0697 6.89264 18.8948 10.5846 19.8267 12.0036C18.8018 13.6086 16.2168 16.8946 12.2197 16.9966ZM21.8678 11.5016C21.2297 10.3896 17.7057 4.81564 11.7297 5.00264C6.20175 5.14264 2.98675 10.0126 2.13275 11.5016C1.95575 11.8096 1.95575 12.1886 2.13275 12.4966C2.76175 13.5936 6.16175 18.9986 12.0247 18.9986C12.1067 18.9986 12.1888 18.9976 12.2708 18.9956C17.7977 18.8546 21.0138 13.9856 21.8678 12.4966C22.0438 12.1886 22.0438 11.8096 21.8678 11.5016Z" fill="#6E6B7B"/>
    <mask id="mask0_1570_12892" style="mask-type:luminance" maskUnits="userSpaceOnUse" x="2" y="4" width="20" height="15">
        <path fill-rule="evenodd" clip-rule="evenodd" d="M12 13.499C11.173 13.499 10.5 12.826 10.5 11.999C10.5 11.172 11.173 10.499 12 10.499C12.827 10.499 13.5 11.172 13.5 11.999C13.5 12.826 12.827 13.499 12 13.499ZM12 8.49904C10.0701 8.49904 8.50005 10.069 8.50005 11.999C8.50005 13.929 10.0701 15.499 12 15.499C13.93 15.499 15.5 13.929 15.5 11.999C15.5 10.069 13.93 8.49904 12 8.49904ZM12.2197 16.9966C7.91375 17.0966 5.10475 13.4136 4.17275 11.9946C5.19875 10.3896 7.78275 7.10364 11.7807 7.00164C16.0697 6.89264 18.8948 10.5846 19.8267 12.0036C18.8018 13.6086 16.2168 16.8946 12.2197 16.9966ZM21.8678 11.5016C21.2297 10.3896 17.7057 4.81564 11.7297 5.00264C6.20175 5.14264 2.98675 10.0126 2.13275 11.5016C1.95575 11.8096 1.95575 12.1886 2.13275 12.4966C2.76175 13.5936 6.16175 18.9986 12.0247 18.9986C12.1067 18.9986 12.1888 18.9976 12.2708 18.9956C17.7977 18.8546 21.0138 13.9856 21.8678 12.4966C22.0438 12.1886 22.0438 11.8096 21.8678 11.5016Z" fill="white"/>
    </mask>
    <g mask="url(#mask0_1570_12892)">
    </g>
</svg>
