<svg width="36" height="36" viewBox="0 0 40 36" fill="none" xmlns="http://www.w3.org/2000/svg">
    <path fill-rule="evenodd" clip-rule="evenodd" d="M29.682 28.5H21.5331V15H31.3118V27C31.3118 27.828 30.58 28.5 29.682 28.5ZM8.49491 27V15H18.2736V28.5H10.1247C9.22668 28.5 8.49491 27.828 8.49491 27ZM10.1247 7.5H29.682C30.58 7.5 31.3118 8.172 31.3118 9V12H8.49491V9C8.49491 8.172 9.22668 7.5 10.1247 7.5ZM29.682 4.5H10.1247C7.42903 4.5 5.23535 6.519 5.23535 9V13.227V13.773V27C5.23535 29.481 7.42903 31.5 10.1247 31.5H29.682C32.3777 31.5 34.5714 29.481 34.5714 27V13.773V13.227V9C34.5714 6.519 32.3777 4.5 29.682 4.5Z" fill="#18203A" fill-opacity="0.85"/>
    <mask id="mask0_1560_12688" style="mask-type:luminance" maskUnits="userSpaceOnUse" x="5" y="4" width="36" height="36">
        <path fill-rule="evenodd" clip-rule="evenodd" d="M29.682 28.5H21.5331V15H31.3118V27C31.3118 27.828 30.58 28.5 29.682 28.5ZM8.49491 27V15H18.2736V28.5H10.1247C9.22668 28.5 8.49491 27.828 8.49491 27ZM10.1247 7.5H29.682C30.58 7.5 31.3118 8.172 31.3118 9V12H8.49491V9C8.49491 8.172 9.22668 7.5 10.1247 7.5ZM29.682 4.5H10.1247C7.42903 4.5 5.23535 6.519 5.23535 9V13.227V13.773V27C5.23535 29.481 7.42903 31.5 10.1247 31.5H29.682C32.3777 31.5 34.5714 29.481 34.5714 27V13.773V13.227V9C34.5714 6.519 32.3777 4.5 29.682 4.5Z" fill="white"/>
    </mask>
    <g mask="url(#mask0_1560_12688)">
    </g>
</svg>
