<svg width="35" height="35" viewBox="0 0 36 36" fill="none" xmlns="http://www.w3.org/2000/svg">
    <path fill-rule="evenodd" clip-rule="evenodd" d="M4.5 10.5C4.5 9.672 5.172 9 6 9C6.828 9 7.5 9.672 7.5 10.5C7.5 11.328 6.828 12 6 12C5.172 12 4.5 11.328 4.5 10.5ZM4.5 18C4.5 17.172 5.172 16.5 6 16.5C6.828 16.5 7.5 17.172 7.5 18C7.5 18.828 6.828 19.5 6 19.5C5.172 19.5 4.5 18.828 4.5 18ZM6 24C5.172 24 4.5 24.672 4.5 25.5C4.5 26.328 5.172 27 6 27C6.828 27 7.5 26.328 7.5 25.5C7.5 24.672 6.828 24 6 24ZM11.9033 16.5H30.0968C30.8693 16.5 31.5008 17.1315 31.5008 17.904V18.096C31.5008 18.8685 30.8693 19.5 30.0968 19.5H11.9033C11.1308 19.5 10.5008 18.8685 10.5008 18.096V17.904C10.5008 17.1315 11.1308 16.5 11.9033 16.5ZM30.0968 24H11.9033C11.1308 24 10.5008 24.6315 10.5008 25.404V25.596C10.5008 26.3685 11.1308 27 11.9033 27H30.0968C30.8693 27 31.5008 26.3685 31.5008 25.596V25.404C31.5008 24.6315 30.8693 24 30.0968 24ZM11.9033 9H30.0968C30.8693 9 31.5008 9.6315 31.5008 10.404V10.596C31.5008 11.3685 30.8693 12 30.0968 12H11.9033C11.1308 12 10.5008 11.3685 10.5008 10.596V10.404C10.5008 9.6315 11.1308 9 11.9033 9Z" fill="#18203A"/>
    <mask id="mask0_1913_20214" style="mask-type:luminance" maskUnits="userSpaceOnUse" x="4" y="9" width="30" height="30">
        <path fill-rule="evenodd" clip-rule="evenodd" d="M4.5 10.5C4.5 9.672 5.172 9 6 9C6.828 9 7.5 9.672 7.5 10.5C7.5 11.328 6.828 12 6 12C5.172 12 4.5 11.328 4.5 10.5ZM4.5 18C4.5 17.172 5.172 16.5 6 16.5C6.828 16.5 7.5 17.172 7.5 18C7.5 18.828 6.828 19.5 6 19.5C5.172 19.5 4.5 18.828 4.5 18ZM6 24C5.172 24 4.5 24.672 4.5 25.5C4.5 26.328 5.172 27 6 27C6.828 27 7.5 26.328 7.5 25.5C7.5 24.672 6.828 24 6 24ZM11.9033 16.5H30.0968C30.8693 16.5 31.5008 17.1315 31.5008 17.904V18.096C31.5008 18.8685 30.8693 19.5 30.0968 19.5H11.9033C11.1308 19.5 10.5008 18.8685 10.5008 18.096V17.904C10.5008 17.1315 11.1308 16.5 11.9033 16.5ZM30.0968 24H11.9033C11.1308 24 10.5008 24.6315 10.5008 25.404V25.596C10.5008 26.3685 11.1308 27 11.9033 27H30.0968C30.8693 27 31.5008 26.3685 31.5008 25.596V25.404C31.5008 24.6315 30.8693 24 30.0968 24ZM11.9033 9H30.0968C30.8693 9 31.5008 9.6315 31.5008 10.404V10.596C31.5008 11.3685 30.8693 12 30.0968 12H11.9033C11.1308 12 10.5008 11.3685 10.5008 10.596V10.404C10.5008 9.6315 11.1308 9 11.9033 9Z" fill="white"/>
    </mask>
    <g mask="url(#mask0_1913_20214)">
    </g>
</svg>
