<svg width="28" height="28" viewBox="0 0 28 28" fill="none" xmlns="http://www.w3.org/2000/svg">
    <path d="M12.8333 15.1667H6.99992C6.66937 15.1667 6.39248 15.0547 6.16926 14.8307C5.94603 14.6067 5.83403 14.3298 5.83326 14C5.83248 13.6702 5.94448 13.3933 6.16926 13.1693C6.39403 12.9453 6.67092 12.8333 6.99992 12.8333H12.8333V7C12.8333 6.66944 12.9453 6.39255 13.1693 6.16933C13.3933 5.94611 13.6701 5.83411 13.9999 5.83333C14.3297 5.83255 14.607 5.94455 14.8318 6.16933C15.0565 6.39411 15.1681 6.671 15.1666 7V12.8333H20.9999C21.3305 12.8333 21.6078 12.9453 21.8318 13.1693C22.0558 13.3933 22.1674 13.6702 22.1666 14C22.1658 14.3298 22.0538 14.6071 21.8306 14.8318C21.6074 15.0566 21.3305 15.1682 20.9999 15.1667H15.1666V21C15.1666 21.3306 15.0546 21.6078 14.8306 21.8318C14.6066 22.0558 14.3297 22.1674 13.9999 22.1667C13.6701 22.1659 13.3933 22.0539 13.1693 21.8307C12.9453 21.6074 12.8333 21.3306 12.8333 21V15.1667Z" fill="#666666"/>
</svg>
