<svg width="26" height="24" viewBox="0 0 26 24" fill="none" xmlns="http://www.w3.org/2000/svg">
    <path fill-rule="evenodd" clip-rule="evenodd" d="M4.96984 6H21.5901C22.1208 6 22.5546 6.421 22.5546 6.936V7.064C22.5546 7.579 22.1208 8 21.5901 8H4.96984C4.43915 8 4.00636 7.579 4.00636 7.064V6.936C4.00636 6.421 4.43915 6 4.96984 6ZM6.06677 12C6.06677 12.553 5.60513 13 5.03632 13C4.4675 13 4.00586 12.553 4.00586 12C4.00586 11.447 4.4675 11 5.03632 11C5.60513 11 6.06677 11.447 6.06677 12ZM9.09168 11H21.5901C22.1208 11 22.5546 11.421 22.5546 11.936V12.064C22.5546 12.579 22.1208 13 21.5901 13H9.09168C8.56099 13 8.1282 12.579 8.1282 12.064V11.936C8.1282 11.421 8.56099 11 9.09168 11ZM21.5901 16H4.96984C4.43915 16 4.00636 16.421 4.00636 16.936V17.064C4.00636 17.579 4.43915 18 4.96984 18H21.5901C22.1208 18 22.5546 17.579 22.5546 17.064V16.936C22.5546 16.421 22.1208 16 21.5901 16Z" fill="#18203A"/>
    <mask id="mask0_1506_36473" style="mask-type:luminance" maskUnits="userSpaceOnUse" x="4" y="6" width="19" height="12">
        <path fill-rule="evenodd" clip-rule="evenodd" d="M4.96984 6H21.5901C22.1208 6 22.5546 6.421 22.5546 6.936V7.064C22.5546 7.579 22.1208 8 21.5901 8H4.96984C4.43915 8 4.00636 7.579 4.00636 7.064V6.936C4.00636 6.421 4.43915 6 4.96984 6ZM6.06677 12C6.06677 12.553 5.60513 13 5.03632 13C4.4675 13 4.00586 12.553 4.00586 12C4.00586 11.447 4.4675 11 5.03632 11C5.60513 11 6.06677 11.447 6.06677 12ZM9.09168 11H21.5901C22.1208 11 22.5546 11.421 22.5546 11.936V12.064C22.5546 12.579 22.1208 13 21.5901 13H9.09168C8.56099 13 8.1282 12.579 8.1282 12.064V11.936C8.1282 11.421 8.56099 11 9.09168 11ZM21.5901 16H4.96984C4.43915 16 4.00636 16.421 4.00636 16.936V17.064C4.00636 17.579 4.43915 18 4.96984 18H21.5901C22.1208 18 22.5546 17.579 22.5546 17.064V16.936C22.5546 16.421 22.1208 16 21.5901 16Z" fill="white"/>
    </mask>
    <g mask="url(#mask0_1506_36473)">
    </g>
</svg>
